<mxfile host="65bd71144e">
    <diagram id="rvXdoUSrKnAwbhykGs76" name="Page-1">
        <mxGraphModel dx="1236" dy="960" grid="0" gridSize="10" guides="1" tooltips="1" connect="1" arrows="1" fold="1" page="1" pageScale="1" pageWidth="850" pageHeight="1100" background="#ffffff" math="0" shadow="0">
            <root>
                <mxCell id="0"/>
                <mxCell id="1" parent="0"/>
                <mxCell id="6" value="&lt;span style=&quot;color: rgb(0, 0, 0);&quot;&gt;Solar Panel 1&lt;/span&gt;" style="rounded=1;whiteSpace=wrap;html=1;fontSize=15;fillColor=#b1ddf0;strokeColor=#10739e;" parent="1" vertex="1">
                    <mxGeometry x="54" y="409" width="120" height="60" as="geometry"/>
                </mxCell>
                <mxCell id="7" value="&lt;span style=&quot;color: rgb(0, 0, 0);&quot;&gt;Solar Panel 2&lt;/span&gt;" style="rounded=1;whiteSpace=wrap;html=1;fontSize=15;fillColor=#b1ddf0;strokeColor=#10739e;" parent="1" vertex="1">
                    <mxGeometry x="54" y="489" width="120" height="60" as="geometry"/>
                </mxCell>
                <mxCell id="8" value="&lt;span style=&quot;color: rgb(0, 0, 0);&quot;&gt;Solar Panel 3&lt;/span&gt;" style="rounded=1;whiteSpace=wrap;html=1;fontSize=15;fillColor=#b1ddf0;strokeColor=#10739e;" parent="1" vertex="1">
                    <mxGeometry x="54" y="569" width="120" height="60" as="geometry"/>
                </mxCell>
                <mxCell id="9" value="&lt;span style=&quot;color: rgb(0, 0, 0);&quot;&gt;MPPT Charger 1&lt;/span&gt;" style="rounded=0;whiteSpace=wrap;html=1;fontSize=15;fillColor=#b1ddf0;strokeColor=#10739e;" parent="1" vertex="1">
                    <mxGeometry x="214" y="409" width="120" height="60" as="geometry"/>
                </mxCell>
                <mxCell id="10" value="&lt;span style=&quot;color: rgb(0, 0, 0);&quot;&gt;MPPT Charger 2&lt;/span&gt;" style="rounded=0;whiteSpace=wrap;html=1;fontSize=15;fillColor=#b1ddf0;strokeColor=#10739e;" parent="1" vertex="1">
                    <mxGeometry x="214" y="489" width="120" height="60" as="geometry"/>
                </mxCell>
                <mxCell id="11" value="&lt;span style=&quot;color: rgb(0, 0, 0);&quot;&gt;MPPT Charger 3&lt;/span&gt;" style="rounded=0;whiteSpace=wrap;html=1;fontSize=15;fillColor=#b1ddf0;strokeColor=#10739e;" parent="1" vertex="1">
                    <mxGeometry x="214" y="569" width="120" height="60" as="geometry"/>
                </mxCell>
                <mxCell id="12" value="&lt;font color=&quot;#000000&quot;&gt;V/I Monitor&lt;/font&gt;" style="whiteSpace=wrap;html=1;aspect=fixed;fontSize=15;fillColor=#b1ddf0;strokeColor=#10739e;" parent="1" vertex="1">
                    <mxGeometry x="374" y="479" width="80" height="80" as="geometry"/>
                </mxCell>
                <mxCell id="13" value="&lt;font color=&quot;#000000&quot;&gt;Ideal Diode&lt;/font&gt;" style="whiteSpace=wrap;html=1;aspect=fixed;fontSize=15;fillColor=#b1ddf0;strokeColor=#10739e;" parent="1" vertex="1">
                    <mxGeometry x="494" y="479" width="80" height="80" as="geometry"/>
                </mxCell>
                <mxCell id="14" value="&lt;b&gt;&lt;font color=&quot;#0000ff&quot; style=&quot;font-size: 24px;&quot;&gt;Energy Harvesting&lt;/font&gt;&lt;/b&gt;" style="rounded=1;whiteSpace=wrap;html=1;fontSize=15;fillColor=none;strokeColor=none;" parent="1" vertex="1">
                    <mxGeometry x="214" y="259" width="250" height="60" as="geometry"/>
                </mxCell>
                <mxCell id="17" value="&lt;font color=&quot;#000000&quot;&gt;Battery Protection Switches&lt;span style=&quot;white-space: pre;&quot;&gt;&#9;&lt;/span&gt;&lt;/font&gt;" style="rounded=0;whiteSpace=wrap;html=1;fontSize=15;fillColor=#fad7ac;strokeColor=#b46504;" parent="1" vertex="1">
                    <mxGeometry x="734" y="549" width="100" height="80" as="geometry"/>
                </mxCell>
                <mxCell id="18" value="&lt;font color=&quot;#000000&quot;&gt;Battery Gauge&lt;/font&gt;" style="rounded=0;whiteSpace=wrap;html=1;fontSize=15;fillColor=#fad7ac;strokeColor=#b46504;" parent="1" vertex="1">
                    <mxGeometry x="614" y="679" width="80" height="70" as="geometry"/>
                </mxCell>
                <mxCell id="20" value="&lt;font color=&quot;#000000&quot;&gt;&lt;span style=&quot;font-size: 15px;&quot;&gt;Li-on Cell&lt;br&gt;&amp;nbsp;&lt;/span&gt;&lt;span style=&quot;font-size: 15px;&quot;&gt;4000mah&lt;/span&gt;&lt;/font&gt;" style="rounded=1;whiteSpace=wrap;html=1;strokeColor=#b46504;fontSize=24;fillColor=#fad7ac;" parent="1" vertex="1">
                    <mxGeometry x="694" y="774" width="180" height="80" as="geometry"/>
                </mxCell>
                <mxCell id="21" value="&lt;font color=&quot;#000000&quot;&gt;Temperature Sensor&lt;/font&gt;" style="rounded=0;whiteSpace=wrap;html=1;fontSize=15;fillColor=#fad7ac;strokeColor=#b46504;" parent="1" vertex="1">
                    <mxGeometry x="914" y="779" width="90" height="70" as="geometry"/>
                </mxCell>
                <mxCell id="22" value="&lt;font color=&quot;#000000&quot;&gt;Load Switch&lt;/font&gt;" style="rounded=0;whiteSpace=wrap;html=1;fontSize=15;fillColor=#fad7ac;strokeColor=#b46504;" parent="1" vertex="1">
                    <mxGeometry x="864" y="484" width="100" height="70" as="geometry"/>
                </mxCell>
                <mxCell id="23" value="" style="endArrow=classic;html=1;fontSize=24;fontColor=#000000;entryX=0;entryY=0.5;entryDx=0;entryDy=0;fillColor=#b1ddf0;strokeColor=#10739e;" parent="1" target="9" edge="1">
                    <mxGeometry width="50" height="50" relative="1" as="geometry">
                        <mxPoint x="174" y="438.71000000000004" as="sourcePoint"/>
                        <mxPoint x="314" y="438.71000000000004" as="targetPoint"/>
                    </mxGeometry>
                </mxCell>
                <mxCell id="24" value="" style="endArrow=classic;html=1;fontSize=24;fontColor=#000000;entryX=0;entryY=0.5;entryDx=0;entryDy=0;fillColor=#b1ddf0;strokeColor=#10739e;" parent="1" edge="1">
                    <mxGeometry width="50" height="50" relative="1" as="geometry">
                        <mxPoint x="174" y="518.71" as="sourcePoint"/>
                        <mxPoint x="214" y="519" as="targetPoint"/>
                    </mxGeometry>
                </mxCell>
                <mxCell id="25" value="" style="endArrow=classic;html=1;fontSize=24;fontColor=#000000;entryX=0;entryY=0.5;entryDx=0;entryDy=0;fillColor=#b1ddf0;strokeColor=#10739e;" parent="1" edge="1">
                    <mxGeometry width="50" height="50" relative="1" as="geometry">
                        <mxPoint x="174" y="598.71" as="sourcePoint"/>
                        <mxPoint x="214" y="599" as="targetPoint"/>
                    </mxGeometry>
                </mxCell>
                <mxCell id="26" value="" style="endArrow=classic;html=1;fontSize=24;fontColor=#000000;entryX=0;entryY=0.5;entryDx=0;entryDy=0;fillColor=#b1ddf0;strokeColor=#10739e;" parent="1" edge="1">
                    <mxGeometry width="50" height="50" relative="1" as="geometry">
                        <mxPoint x="334" y="518.71" as="sourcePoint"/>
                        <mxPoint x="374" y="519" as="targetPoint"/>
                    </mxGeometry>
                </mxCell>
                <mxCell id="27" value="" style="endArrow=classic;html=1;fontSize=24;fontColor=#000000;entryX=0;entryY=0;entryDx=0;entryDy=0;fillColor=#b1ddf0;strokeColor=#10739e;" parent="1" target="12" edge="1">
                    <mxGeometry width="50" height="50" relative="1" as="geometry">
                        <mxPoint x="334" y="438.71000000000004" as="sourcePoint"/>
                        <mxPoint x="374" y="439" as="targetPoint"/>
                    </mxGeometry>
                </mxCell>
                <mxCell id="28" value="" style="endArrow=classic;html=1;fontSize=24;fontColor=#000000;entryX=0;entryY=1;entryDx=0;entryDy=0;fillColor=#b1ddf0;strokeColor=#10739e;" parent="1" target="12" edge="1">
                    <mxGeometry width="50" height="50" relative="1" as="geometry">
                        <mxPoint x="334" y="598.71" as="sourcePoint"/>
                        <mxPoint x="374" y="599" as="targetPoint"/>
                    </mxGeometry>
                </mxCell>
                <mxCell id="29" value="" style="endArrow=classic;html=1;fontSize=24;fontColor=#000000;entryX=0;entryY=0.5;entryDx=0;entryDy=0;fillColor=#b1ddf0;strokeColor=#10739e;" parent="1" edge="1">
                    <mxGeometry width="50" height="50" relative="1" as="geometry">
                        <mxPoint x="454" y="518.71" as="sourcePoint"/>
                        <mxPoint x="494" y="519" as="targetPoint"/>
                    </mxGeometry>
                </mxCell>
                <mxCell id="30" value="" style="endArrow=classic;html=1;fontSize=24;fontColor=#000000;entryX=0;entryY=0.5;entryDx=0;entryDy=0;fillColor=#fad7ac;strokeColor=#b46504;" parent="1" target="22" edge="1">
                    <mxGeometry width="50" height="50" relative="1" as="geometry">
                        <mxPoint x="574" y="518.8000000000001" as="sourcePoint"/>
                        <mxPoint x="614" y="519.09" as="targetPoint"/>
                    </mxGeometry>
                </mxCell>
                <mxCell id="31" value="" style="endArrow=classic;html=1;fontSize=24;fontColor=#000000;entryX=0.5;entryY=0;entryDx=0;entryDy=0;fillColor=#fad7ac;strokeColor=#b46504;" parent="1" target="17" edge="1">
                    <mxGeometry width="50" height="50" relative="1" as="geometry">
                        <mxPoint x="784" y="519" as="sourcePoint"/>
                        <mxPoint x="874" y="529" as="targetPoint"/>
                    </mxGeometry>
                </mxCell>
                <mxCell id="32" value="" style="endArrow=classic;html=1;fontSize=24;fontColor=#000000;entryX=0.5;entryY=0;entryDx=0;entryDy=0;fillColor=#fad7ac;strokeColor=#b46504;" parent="1" source="17" target="20" edge="1">
                    <mxGeometry width="50" height="50" relative="1" as="geometry">
                        <mxPoint x="743.66" y="629" as="sourcePoint"/>
                        <mxPoint x="743.66" y="659" as="targetPoint"/>
                    </mxGeometry>
                </mxCell>
                <mxCell id="33" value="" style="endArrow=classic;html=1;fontSize=24;fontColor=#000000;entryX=1;entryY=0.5;entryDx=0;entryDy=0;fillColor=#fad7ac;strokeColor=#b46504;" parent="1" target="18" edge="1">
                    <mxGeometry width="50" height="50" relative="1" as="geometry">
                        <mxPoint x="784" y="714" as="sourcePoint"/>
                        <mxPoint x="863" y="799" as="targetPoint"/>
                    </mxGeometry>
                </mxCell>
                <mxCell id="34" value="" style="curved=1;endArrow=oval;html=1;fontSize=24;fontColor=#000000;fillColor=#fad7ac;strokeColor=#b46504;endFill=1;" parent="1" edge="1">
                    <mxGeometry width="50" height="50" relative="1" as="geometry">
                        <mxPoint x="784" y="659" as="sourcePoint"/>
                        <mxPoint x="654" y="469" as="targetPoint"/>
                        <Array as="points">
                            <mxPoint x="664" y="659.5699999999999"/>
                            <mxPoint x="654" y="659"/>
                            <mxPoint x="654" y="639"/>
                            <mxPoint x="654" y="590"/>
                            <mxPoint x="654" y="539"/>
                            <mxPoint x="654" y="529"/>
                            <mxPoint x="664" y="519"/>
                            <mxPoint x="654" y="509"/>
                        </Array>
                    </mxGeometry>
                </mxCell>
                <mxCell id="36" value="" style="curved=1;endArrow=classic;html=1;fontSize=24;fontColor=#000000;fillColor=#fad7ac;strokeColor=#b46504;endFill=1;dashed=1;strokeWidth=2;" parent="1" edge="1">
                    <mxGeometry width="50" height="50" relative="1" as="geometry">
                        <mxPoint x="734" y="589" as="sourcePoint"/>
                        <mxPoint x="694" y="399" as="targetPoint"/>
                        <Array as="points">
                            <mxPoint x="704" y="589.5699999999999"/>
                            <mxPoint x="694" y="589"/>
                            <mxPoint x="694" y="569"/>
                            <mxPoint x="694" y="520"/>
                            <mxPoint x="694" y="459"/>
                        </Array>
                    </mxGeometry>
                </mxCell>
                <mxCell id="37" value="&lt;font color=&quot;#000000&quot;&gt;Development Switch 1&lt;/font&gt;" style="rounded=0;whiteSpace=wrap;html=1;fontSize=15;fillColor=#fad7ac;strokeColor=#b46504;" parent="1" vertex="1">
                    <mxGeometry x="644" y="339" width="100" height="60" as="geometry"/>
                </mxCell>
                <mxCell id="38" value="&lt;font color=&quot;#000000&quot;&gt;Development Switch 2&lt;/font&gt;" style="rounded=0;whiteSpace=wrap;html=1;fontSize=15;fillColor=#fad7ac;strokeColor=#b46504;" parent="1" vertex="1">
                    <mxGeometry x="864" y="339" width="100" height="60" as="geometry"/>
                </mxCell>
                <mxCell id="57" value="" style="rounded=0;whiteSpace=wrap;html=1;fillColor=none;fontColor=#333333;strokeColor=#707070;movable=1;resizable=1;rotatable=1;deletable=1;editable=1;connectable=1;glass=0;shadow=0;dashed=1;strokeWidth=2;" parent="1" vertex="1">
                    <mxGeometry x="15" y="832" width="93" height="61" as="geometry"/>
                </mxCell>
                <mxCell id="39" value="" style="endArrow=classic;html=1;fontSize=24;fontColor=#000000;entryX=0.5;entryY=1;entryDx=0;entryDy=0;fillColor=#fad7ac;strokeColor=#b46504;exitX=0.5;exitY=0;exitDx=0;exitDy=0;dashed=1;strokeWidth=2;" parent="1" source="22" target="38" edge="1">
                    <mxGeometry width="50" height="50" relative="1" as="geometry">
                        <mxPoint x="794" y="529" as="sourcePoint"/>
                        <mxPoint x="794" y="558.9999999999999" as="targetPoint"/>
                    </mxGeometry>
                </mxCell>
                <mxCell id="40" value="&lt;b&gt;&lt;font color=&quot;#ab8a62&quot; style=&quot;font-size: 24px;&quot;&gt;Energy Storage&lt;/font&gt;&lt;/b&gt;" style="rounded=1;whiteSpace=wrap;html=1;fontSize=15;fillColor=none;strokeColor=none;" parent="1" vertex="1">
                    <mxGeometry x="674" y="259" width="250" height="60" as="geometry"/>
                </mxCell>
                <mxCell id="41" value="&lt;font color=&quot;#000000&quot;&gt;External&lt;br&gt;Charger&lt;/font&gt;" style="rounded=0;whiteSpace=wrap;html=1;fontSize=10;fillColor=none;strokeColor=none;" parent="1" vertex="1">
                    <mxGeometry x="626" y="439" width="56" height="30" as="geometry"/>
                </mxCell>
                <mxCell id="54" value="" style="curved=1;endArrow=none;html=1;strokeWidth=2;fontSize=10;fontColor=#000000;endFill=0;fillColor=#fad7ac;strokeColor=#b46504;" parent="1" edge="1">
                    <mxGeometry width="50" height="50" relative="1" as="geometry">
                        <mxPoint x="910" y="839.1297402597403" as="sourcePoint"/>
                        <mxPoint x="909" y="788.87" as="targetPoint"/>
                        <Array as="points">
                            <mxPoint x="909" y="838.87"/>
                            <mxPoint x="897" y="814.87"/>
                        </Array>
                    </mxGeometry>
                </mxCell>
                <mxCell id="55" value="" style="curved=1;endArrow=none;html=1;strokeWidth=2;fontSize=10;fontColor=#000000;endFill=0;fillColor=#fad7ac;strokeColor=#b46504;" parent="1" edge="1">
                    <mxGeometry width="50" height="50" relative="1" as="geometry">
                        <mxPoint x="898" y="839.1297402597403" as="sourcePoint"/>
                        <mxPoint x="897" y="788.8700000000002" as="targetPoint"/>
                        <Array as="points">
                            <mxPoint x="897" y="838.87"/>
                            <mxPoint x="885" y="814.87"/>
                        </Array>
                    </mxGeometry>
                </mxCell>
                <mxCell id="56" value="" style="curved=1;endArrow=none;html=1;strokeWidth=2;fontSize=10;fontColor=#000000;endFill=0;fillColor=#fad7ac;strokeColor=#b46504;" parent="1" edge="1">
                    <mxGeometry width="50" height="50" relative="1" as="geometry">
                        <mxPoint x="887" y="839.1297402597403" as="sourcePoint"/>
                        <mxPoint x="886" y="788.8700000000002" as="targetPoint"/>
                        <Array as="points">
                            <mxPoint x="886" y="838.87"/>
                            <mxPoint x="874" y="814.87"/>
                        </Array>
                    </mxGeometry>
                </mxCell>
                <mxCell id="61" value="&lt;font color=&quot;#000000&quot;&gt;V/I &lt;br&gt;Monitor&lt;/font&gt;" style="rounded=0;whiteSpace=wrap;html=1;fontSize=15;fillColor=#cdeb8b;strokeColor=#36393d;" vertex="1" parent="1">
                    <mxGeometry x="1090" y="484" width="100" height="70" as="geometry"/>
                </mxCell>
                <mxCell id="62" value="&lt;font color=&quot;#000000&quot;&gt;3V3&lt;br&gt;Regulator&lt;/font&gt;" style="rounded=0;whiteSpace=wrap;html=1;fontSize=15;fillColor=#cdeb8b;strokeColor=#36393d;" vertex="1" parent="1">
                    <mxGeometry x="1280" y="484" width="100" height="70" as="geometry"/>
                </mxCell>
                <mxCell id="63" value="&lt;font color=&quot;#000000&quot;&gt;12V&lt;br&gt;Regulator&lt;/font&gt;" style="rounded=0;whiteSpace=wrap;html=1;fontSize=15;fillColor=#cdeb8b;strokeColor=#36393d;" vertex="1" parent="1">
                    <mxGeometry x="1280" y="609" width="100" height="70" as="geometry"/>
                </mxCell>
                <mxCell id="64" value="&lt;font color=&quot;#000000&quot;&gt;Microcontroller&lt;br&gt;&amp;nbsp;&amp;amp; Lora module&lt;/font&gt;" style="rounded=0;whiteSpace=wrap;html=1;fontSize=15;fillColor=#cdeb8b;strokeColor=#36393d;" vertex="1" parent="1">
                    <mxGeometry x="1470" y="484" width="120" height="70" as="geometry"/>
                </mxCell>
                <mxCell id="65" value="&lt;font color=&quot;#000000&quot;&gt;RS485 Sensors&lt;/font&gt;" style="rounded=0;whiteSpace=wrap;html=1;fontSize=15;fillColor=#cdeb8b;strokeColor=#36393d;" vertex="1" parent="1">
                    <mxGeometry x="1480" y="610" width="100" height="70" as="geometry"/>
                </mxCell>
                <mxCell id="66" value="" style="endArrow=classic;html=1;fontSize=24;fontColor=#000000;fillColor=#cdeb8b;strokeColor=#36393d;" edge="1" parent="1">
                    <mxGeometry width="50" height="50" relative="1" as="geometry">
                        <mxPoint x="964" y="520" as="sourcePoint"/>
                        <mxPoint x="1090" y="520" as="targetPoint"/>
                    </mxGeometry>
                </mxCell>
                <mxCell id="67" value="" style="endArrow=classic;html=1;fontSize=24;fontColor=#000000;fillColor=#cdeb8b;strokeColor=#36393d;exitX=1.004;exitY=0.519;exitDx=0;exitDy=0;exitPerimeter=0;" edge="1" parent="1" source="61">
                    <mxGeometry width="50" height="50" relative="1" as="geometry">
                        <mxPoint x="1190" y="518.58" as="sourcePoint"/>
                        <mxPoint x="1280" y="520" as="targetPoint"/>
                    </mxGeometry>
                </mxCell>
                <mxCell id="68" value="" style="endArrow=classic;html=1;fontSize=24;fontColor=#000000;fillColor=#cdeb8b;strokeColor=#36393d;exitX=1.004;exitY=0.519;exitDx=0;exitDy=0;exitPerimeter=0;" edge="1" parent="1">
                    <mxGeometry width="50" height="50" relative="1" as="geometry">
                        <mxPoint x="1380.3999999999999" y="519.17" as="sourcePoint"/>
                        <mxPoint x="1470" y="518.84" as="targetPoint"/>
                    </mxGeometry>
                </mxCell>
                <mxCell id="69" value="" style="endArrow=classic;html=1;fontSize=24;fontColor=#000000;fillColor=#cdeb8b;strokeColor=#36393d;exitX=1.004;exitY=0.519;exitDx=0;exitDy=0;exitPerimeter=0;entryX=0;entryY=0.429;entryDx=0;entryDy=0;entryPerimeter=0;" edge="1" parent="1" target="65">
                    <mxGeometry width="50" height="50" relative="1" as="geometry">
                        <mxPoint x="1380.3999999999999" y="640.3299999999999" as="sourcePoint"/>
                        <mxPoint x="1470" y="640" as="targetPoint"/>
                    </mxGeometry>
                </mxCell>
                <mxCell id="71" value="" style="curved=1;endArrow=classic;html=1;fillColor=#cdeb8b;strokeColor=#36393d;" edge="1" parent="1">
                    <mxGeometry width="50" height="50" relative="1" as="geometry">
                        <mxPoint x="1230" y="520" as="sourcePoint"/>
                        <mxPoint x="1280" y="640" as="targetPoint"/>
                        <Array as="points">
                            <mxPoint x="1230" y="580"/>
                            <mxPoint x="1230" y="630"/>
                            <mxPoint x="1230" y="640"/>
                            <mxPoint x="1240" y="640"/>
                        </Array>
                    </mxGeometry>
                </mxCell>
                <mxCell id="72" value="&lt;b&gt;&lt;font color=&quot;#879666&quot; style=&quot;font-size: 24px;&quot;&gt;Power Distribution&lt;/font&gt;&lt;/b&gt;" style="rounded=1;whiteSpace=wrap;html=1;fontSize=15;fillColor=none;strokeColor=none;" vertex="1" parent="1">
                    <mxGeometry x="1220" y="259" width="250" height="60" as="geometry"/>
                </mxCell>
            </root>
        </mxGraphModel>
    </diagram>
</mxfile>